# xmcd
#
# Track frame offsets:
#	150
#	19445
#	45440
#	65247
#	89607
#	111137
#	127627
#	150135
#	166667
#	212957
#
# Disc length: 3005 seconds
#
# Revision: 0
# Processed by: cddbd v1.5.1PL0 Copyright (c) Steve Scherf et al.
# Submitted via: dBpowerAMP V4.0
#
DISCID=7b0bbb0a
DTITLE=Arnold Ziffle's Blues Farm - Notorious P.I.G.
DYEAR=1997
DGENRE=Blues Rock
TTITLE0=Melbas Fur
TTITLE1=Five Cent Blues
TTITLE2=I'm Ready
TTITLE3=Rock-A-Billy Blue Suede Shoes
TTITLE4=Losing My MInd
TTITLE5=Little Bit Of Kindness
TTITLE6=Born Under A Bad Sign
TTITLE7=Too Hot To Handle
TTITLE8=Standing Around Crying
TTITLE9=Unhappy Girlfriend Blues
EXTD=
EXTT0=
EXTT1=
EXTT2=
EXTT3=
EXTT4=
EXTT5=
EXTT6=
EXTT7=
EXTT8=
EXTT9=
PLAYORDER=
